<svg width="226" height="226" fill="none" xmlns="http://www.w3.org/2000/svg"><circle cx="113" cy="113" r="74" fill="#F0F1F2"/><g filter="url(#prefix__filter0_d)"><path d="M169 61.282V149l-33.44 16H90.44L57 149V39a2 2 0 012-2h84l26 24.282z" fill="#fff"/></g><path d="M87.001 123.003h-18c-1.1 0-2-.9-2-2v-4c0-1.1.9-2 2-2h18c1.1 0 2 .9 2 2v4c0 1.1-.9 2-2 2zm0-14h-18c-1.1 0-2-.9-2-2s.9-2 2-2h18c1.1 0 2 .9 2 2s-.9 2-2 2zM156.882 123h-31.764c-1.165 0-2.118-.9-2.118-2v-4c0-1.1.953-2 2.118-2h31.764c1.165 0 2.118.9 2.118 2v4c0 1.1-.953 2-2.118 2zm-7.881-13.997h-24c-1.1 0-2-.9-2-2s.9-2 2-2h24c1.1 0 2 .9 2 2s-.9 2-2 2zm-36 14h-14c-1.1 0-2-.9-2-2v-4c0-1.1.9-2 2-2h14c1.1 0 2 .9 2 2v4c0 1.1-.9 2-2 2zm-6-14h-8c-1.1 0-2-.9-2-2s.9-2 2-2h8c1.1 0 2 .9 2 2s-.9 2-2 2z" fill="#E8E9EB"/><path d="M157.001 77.003h-26c-1.1 0-2-.9-2-2s.9-2 2-2h26c1.1 0 2 .9 2 2s-.9 2-2 2z" fill="#D2D5D9"/><path d="M113.001 169.503h-44c-1.1 0-2-.9-2-2v-32.5c0-1.1.9-2 2-2h44c1.1 0 2 .9 2 2v32.5c0 1.1-.9 2-2 2z" fill="#E8E9EB"/><path d="M75.501 174.003h37.5c1.1 0 2-.9 2-2v-1h-6.94c-.86 0-1.62-.55-1.9-1.37l-7.09-21.27a2 2 0 00-1.9-1.37h-30.17l6.5 25c0 1.11.9 2.01 2 2.01z" fill="#B6BABF"/><path d="M157.001 151.003h-32c-1.1 0-2-.9-2-2v-4c0-1.1.9-2 2-2h32c1.1 0 2 .9 2 2v4c0 1.1-.9 2-2 2zm0-14h-32c-1.1 0-2-.9-2-2s.9-2 2-2h32c1.1 0 2 .9 2 2s-.9 2-2 2z" fill="#E8E9EB"/><path d="M149.001 163.003h-68v13h68v-13z" fill="#5AB2AC"/><path d="M143.001 37.003v22.264a2 2 0 001.997 2l24.021.036-26.018-24.3z" fill="#D2D5D9"/><path d="M119.001 49.003h-52v46h52v-46z" fill="#E8E9EB"/><path d="M99.271 57.003s-1.85.9-6.21.9c-4.36 0-6.33-.9-6.33-.9l-13.73 5.37 1.85 8.36 7.15-1.73v18.99h22v-19.05l7.15 1.79 1.85-8.36-13.73-5.37z" fill="#DE6A5A"/><path d="M99.211 57.003c0 3.46-2.81 6.27-6.27 6.27-3.4 0-6.21-2.81-6.21-6.27 0 0 2.03.9 6.33.9 4.3 0 6.15-.9 6.15-.9z" fill="#CD5747"/><path d="M119.001 79.003h-52v16h52v-16z" fill="#D2D5D9"/><path d="M104.001 79.003h-22v9h22v-9z" fill="#CD5747"/><path d="M132.001 93.003a3 3 0 100-6 3 3 0 000 6z" fill="#DE6A5A"/><path d="M144.001 93.003a3 3 0 100-6 3 3 0 000 6zm12 0a3 3 0 100-6 3 3 0 000 6z" fill="#D2D5D9"/><path d="M178.74 147c-2.68 5.18-5.96 10-9.74 14.38l-1.44 1.62c-13.53 14.75-32.97 24-54.56 24-21.59 0-41.03-9.25-54.56-24L57 161.38c-3.78-4.38-7.06-9.2-9.74-14.38h42.3c.86 0 1.62.55 1.9 1.37l7.09 21.27a2 2 0 001.9 1.37h29.12c.86 0 1.62-.55 1.9-1.37l7.09-21.27a2 2 0 011.9-1.37h38.28z" fill="#399C97"/><defs><filter id="prefix__filter0_d" x="47" y="29" width="132" height="148" filterUnits="userSpaceOnUse" color-interpolation-filters="sRGB"><feFlood flood-opacity="0" result="BackgroundImageFix"/><feColorMatrix in="SourceAlpha" values="0 0 0 0 0 0 0 0 0 0 0 0 0 0 0 0 0 0 127 0"/><feOffset dy="2"/><feGaussianBlur stdDeviation="5"/><feColorMatrix values="0 0 0 0 0 0 0 0 0 0 0 0 0 0 0 0 0 0 0.3 0"/><feBlend in2="BackgroundImageFix" result="effect1_dropShadow"/><feBlend in="SourceGraphic" in2="effect1_dropShadow" result="shape"/></filter></defs></svg>