<svg width="101" height="116" viewBox="0 0 101 116" fill="none" xmlns="http://www.w3.org/2000/svg"><path d="M100.925 65.337a49.453 49.453 0 01-4.534 20.752C88.5 103.258 71.108 115.18 50.925 115.18c-20.182 0-37.574-11.922-45.466-29.091A49.454 49.454 0 01.925 65.337c0-27.529 22.385-49.844 50-49.844s50 22.315 50 49.844z" fill="#F0F1F2"/><mask id="a" style="mask-type:alpha" maskUnits="userSpaceOnUse" x="1" y="0" width="100" height="116"><path d="M101 27.28c0 7.401-1.622 52.49-4.534 58.808-7.892 17.169-25.284 29.091-45.466 29.091-20.182 0-37.574-11.922-45.466-29.091C2.622 79.77 1 34.682 1 27.279 1-.249 23.385 0 51 0s50-.25 50 27.28z" fill="#F0F1F2"/></mask><g mask="url(#a)"><g filter="url(#filter0_d)"><path d="M91 85H8c-1.1 0-2-.962-2-2.138V25.138C6 23.962 6.9 23 8 23h83c1.1 0 2 .962 2 2.138v57.724C93 84.038 92.1 85 91 85z" fill="#fff"/></g><path d="M39 36.563H28.5c-.552 0-1 .433-1 .968v10.172c0 .535.448.969 1 .969H39c.552 0 1-.434 1-.969V37.531c0-.535-.448-.968-1-.968zm32 0H60.5c-.552 0-1 .433-1 .968v10.172c0 .535.448.969 1 .969H71c.552 0 1-.434 1-.969V37.531c0-.535-.448-.968-1-.968zm16 0H76.5c-.552 0-1 .433-1 .968v10.172c0 .535.448.969 1 .969H87c.552 0 1-.434 1-.969V37.531c0-.535-.448-.968-1-.968zm-32 0H44.5c-.552 0-1 .433-1 .968v10.172c0 .535.448.969 1 .969H55c.552 0 1-.434 1-.969V37.531c0-.535-.448-.968-1-.968zm-32 15.5H12.5c-.552 0-1 .433-1 .968v10.172c0 .535.448.969 1 .969H23c.552 0 1-.434 1-.969V53.031c0-.535-.448-.968-1-.968zm16 0H28.5c-.552 0-1 .433-1 .968v10.172c0 .535.448.969 1 .969H39c.552 0 1-.434 1-.969V53.031c0-.535-.448-.968-1-.968zm32 0H60.5c-.552 0-1 .433-1 .968v10.172c0 .535.448.969 1 .969H71c.552 0 1-.434 1-.969V53.031c0-.535-.448-.968-1-.968zm16 0H76.5c-.552 0-1 .433-1 .968v10.172c0 .535.448.969 1 .969H87c.552 0 1-.434 1-.969V53.031c0-.535-.448-.968-1-.968zm-32 0H44.5c-.552 0-1 .433-1 .968v10.172c0 .535.448.969 1 .969H55c.552 0 1-.434 1-.969V53.031c0-.535-.448-.968-1-.968zm-32 15.5H12.5c-.552 0-1 .433-1 .968v10.172c0 .535.448.969 1 .969H23c.552 0 1-.434 1-.969V68.531c0-.535-.448-.969-1-.969zm16 0H28.5c-.552 0-1 .433-1 .968v10.172c0 .535.448.969 1 .969H39c.552 0 1-.434 1-.969V68.531c0-.535-.448-.969-1-.969zm32 0H60.5c-.552 0-1 .433-1 .968v10.172c0 .535.448.969 1 .969H71c.552 0 1-.434 1-.969V68.531c0-.535-.448-.969-1-.969zm-16 0H44.5c-.552 0-1 .433-1 .968v10.172c0 .535.448.969 1 .969H55c.552 0 1-.434 1-.969V68.531c0-.535-.448-.969-1-.969z" fill="#E8E9EB"/><path fill-rule="evenodd" clip-rule="evenodd" d="M12.935 28.85c.407-.323.92-.522 1.565-.522.645 0 1.158.2 1.565.521.346.274.587.62.741.843l.023.032c.184.264.274.381.37.457.053.042.12.085.301.085.18 0 .248-.043.3-.085.096-.076.187-.193.371-.457l.023-.032c.154-.223.395-.57.74-.843.408-.322.921-.52 1.566-.52s1.158.198 1.565.52c.346.274.587.62.741.843l.023.032c.184.264.274.381.37.457.053.042.12.085.301.085.18 0 .248-.043.3-.085.096-.076.187-.193.371-.457l.023-.032c.154-.223.395-.57.74-.843.408-.322.921-.52 1.566-.52s1.158.198 1.565.52c.346.274.587.62.741.843l.023.032c.184.264.274.381.37.457.053.042.12.085.301.085.552 0 1 .433 1 .968 0 .535-.448.97-1 .97-.645 0-1.158-.2-1.565-.522-.346-.274-.587-.62-.741-.842l-.023-.032c-.184-.265-.274-.382-.37-.458-.053-.041-.12-.084-.301-.084-.18 0-.248.043-.3.084-.096.076-.187.193-.371.458l-.023.032c-.154.222-.395.568-.74.842-.408.322-.921.521-1.566.521s-1.158-.2-1.565-.52c-.346-.275-.587-.621-.741-.843l-.023-.032c-.184-.265-.274-.382-.37-.458-.053-.041-.12-.084-.301-.084-.18 0-.248.043-.3.084-.096.076-.187.193-.371.458l-.023.032c-.154.222-.395.568-.74.842-.408.322-.921.521-1.566.521s-1.158-.2-1.565-.52c-.346-.275-.587-.621-.742-.843l-.022-.032c-.184-.265-.274-.382-.37-.458-.053-.041-.12-.084-.301-.084-.18 0-.248.043-.3.084-.096.076-.187.193-.371.458l-.023.032c-.154.222-.395.568-.74.842-.408.322-.921.521-1.566.521-.552 0-1-.434-1-.969 0-.535.448-.968 1-.968.18 0 .248-.043.3-.085.096-.076.187-.193.371-.457l.023-.032c.154-.223.395-.57.74-.843z" fill="#E8E9EB"/><path d="M57.111 65H99v41H57.111V65z" fill="#D9942D"/><path d="M41 65h41.889v41H41V65z" fill="#E9AF58"/><path d="M48.166 83.001c0-1.516 1.24-2.745 2.77-2.745h22.625c1.53 0 2.77 1.229 2.77 2.745v9.05c0 1.516-1.24 2.745-2.77 2.745H50.937c-1.53 0-2.771-1.23-2.771-2.746v-9.049z" fill="#fff"/><path fill-rule="evenodd" clip-rule="evenodd" d="M50.881 85.261c0-.758.62-1.373 1.386-1.373H72.23a1.38 1.38 0 011.386 1.373 1.38 1.38 0 01-1.386 1.373H52.267a1.38 1.38 0 01-1.386-1.373zm0 4.529c0-.758.62-1.373 1.386-1.373h12.387a1.38 1.38 0 011.385 1.373 1.38 1.38 0 01-1.385 1.373H52.267a1.38 1.38 0 01-1.386-1.373z" fill="#B6BABF"/><path d="M56.476 65h10.426v6.938H56.476V65z" fill="#C6965F"/><path d="M86.99 65h8.822v6.938H86.99V65z" fill="#BD8B50"/></g><defs><filter id="filter0_d" x="-4" y="15" width="107" height="82" filterUnits="userSpaceOnUse" color-interpolation-filters="sRGB"><feFlood flood-opacity="0" result="BackgroundImageFix"/><feColorMatrix in="SourceAlpha" values="0 0 0 0 0 0 0 0 0 0 0 0 0 0 0 0 0 0 127 0" result="hardAlpha"/><feOffset dy="2"/><feGaussianBlur stdDeviation="5"/><feColorMatrix values="0 0 0 0 0 0 0 0 0 0 0 0 0 0 0 0 0 0 0.12 0"/><feBlend in2="BackgroundImageFix" result="effect1_dropShadow"/><feBlend in="SourceGraphic" in2="effect1_dropShadow" result="shape"/></filter></defs></svg>