<svg width="102" height="116" viewBox="0 0 102 116" fill="none" xmlns="http://www.w3.org/2000/svg"><path d="M100.925 65.542a49.74 49.74 0 01-4.534 20.818c-7.891 17.223-25.283 29.182-45.466 29.182-20.182 0-37.574-11.959-45.466-29.182A49.74 49.74 0 01.925 65.542c0-27.615 22.385-50 50-50s50 22.385 50 50z" fill="#F0F1F2"/><mask id="a" style="mask-type:alpha" maskUnits="userSpaceOnUse" x="1" y="0" width="101" height="116"><path d="M101.5 27.365c0 7.426-1.622 52.655-4.534 58.993-7.892 17.223-25.284 29.183-45.466 29.183-20.182 0-37.574-11.96-45.466-29.183C3.122 80.02 1.5 34.79 1.5 27.365 1.5-.25 23.885 0 51.5 0s50-.25 50 27.365z" fill="#F0F1F2"/></mask><g mask="url(#a)"><path d="M67.095 14.308a.703.703 0 001.405 0h-1.405zm1.405 0v-1.106h-1.405v1.106H68.5zm2.5-3.605h.279V9.296h-.28v1.405zm2.5 2.22v1.439h1.404v-1.439H73.5zm-2.97 4.408v4.636h1.406V17.33H70.53zm2.188-2.187a2.187 2.187 0 00-2.187 2.187h1.405c0-.432.35-.782.781-.782v-1.405zm.781-.782c0 .432-.35.782-.781.782v1.405a2.187 2.187 0 002.186-2.187H73.5zm-2.22-3.66a2.22 2.22 0 012.22 2.221h1.405a3.626 3.626 0 00-3.625-3.626v1.405zm-2.78 2.5a2.5 2.5 0 012.5-2.5V9.298a3.905 3.905 0 00-3.904 3.905H68.5z" fill="#B6BABF"/><path d="M75.084 20.44h-5.309c-1.165 3.43-9.32 10.942-19.09 13.54 1.273 1.613 4.636 3.875 7.908 0 2.31-2.738 6.23-5.033 9.33-6.502a7.528 7.528 0 016.448 0c3.1 1.466 7.02 3.761 9.332 6.502 3.271 3.875 6.634 1.613 7.906 0-9.772-2.598-15.36-10.11-16.525-13.54z" fill="#975D48"/><path d="M50.685 33.06c8.328-2.214 13.022-7.998 14.947-11.782.52-1.022 1.528-1.758 2.674-1.758h5.68c1.147 0 2.154.736 2.674 1.758 1.926 3.784 6.62 9.568 14.95 11.782-1.273 1.614-4.636 3.876-7.907 0-2.312-2.74-6.231-5.036-9.332-6.501a7.528 7.528 0 00-6.447 0c-3.1 1.468-7.02 3.763-9.331 6.501-3.272 3.876-6.635 1.614-7.908 0z" fill="#C6965F"/><rect width="11.255" height="11.339" rx="2.899" transform="matrix(.9421 .33534 -.32972 .94408 31.372 90.52)" fill="#3C8B96"/><rect width="11.255" height="11.339" rx="2.899" transform="matrix(-.9421 .33534 .32972 .94408 110.627 90.52)" fill="#3C8B96"/><path d="M48.6 31.349a3.345 3.345 0 013.177-2.297h11.888L42.602 97.901a2.676 2.676 0 01-3.493 1.725l-9.194-3.424a2.676 2.676 0 01-1.608-3.346l20.294-61.507zm44.8 0a3.345 3.345 0 00-3.177-2.297H78.335l21.063 68.849a2.676 2.676 0 003.493 1.725l9.194-3.424a2.677 2.677 0 001.608-3.346L93.399 31.349z" fill="#5BA7B1"/><path d="M48.298 32.397a3.345 3.345 0 013.345-3.345h38.714a3.345 3.345 0 013.345 3.345v61.307a6.913 6.913 0 01-6.913 6.913H55.211a6.913 6.913 0 01-6.913-6.913V32.397z" fill="#5BA7B1"/><path d="M48.298 93.18h45.404v.524a6.912 6.912 0 01-6.913 6.912H55.211a6.912 6.912 0 01-6.913-6.912v-.525z" fill="#3C8B96"/><path fill-rule="evenodd" clip-rule="evenodd" d="M48.298 72.846v-40.45a3.345 3.345 0 013.345-3.344h38.714a3.345 3.345 0 013.345 3.345v40.45c-6.09 5.016-14.025 8.05-22.702 8.05-8.678 0-16.612-3.034-22.702-8.051z" fill="#7FBEC6"/><path fill-rule="evenodd" clip-rule="evenodd" d="M52.86 64.372H37.705l10.896-33.024a3.345 3.345 0 013.176-2.296h11.889L52.86 64.371zm36.28 0h15.155L93.399 31.348a3.345 3.345 0 00-3.176-2.296H78.335l10.805 35.32z" fill="#7FBEC6"/><path d="M65.156 58.006a.78.78 0 001.561 0h-1.56zm0-22.423v22.423h1.561V35.583h-1.56z" fill="#fff"/><path d="M93.61 52.25v26.94l5.94 19.165a2.23 2.23 0 002.815 1.462l.735-.237-9.49-47.328zM63.666 29.052h14.668v1.938a5.129 5.129 0 01-5.129 5.13h-4.41a5.129 5.129 0 01-5.13-5.13v-1.938z" fill="#3C8B96"/><path d="M75.898 58.006a.78.78 0 001.561 0H75.9zm0-22.423v22.423h1.561V35.583H75.9z" fill="#fff"/><path d="M51.291 29.142s2.2-1.806 4.734-3.84c2.434-1.954 5.984-1.461 7.839 1.048l7.69 10.403c-9.829.447-17.57-4.818-20.263-7.611z" fill="#5BA7B1"/><path d="M90.709 29.142s-2.2-1.806-4.735-3.84c-2.434-1.954-5.983-1.461-7.838 1.048l-7.69 10.403c9.828.447 17.57-4.818 20.263-7.611z" fill="#5BA7B1"/><path d="M29.67 43.385c.871 0 1.578-.534 1.578-1.193 0-.658-.707-1.192-1.579-1.192-.871 0-1.578.534-1.578 1.192 0 .659.707 1.193 1.578 1.193z" fill="#1F2225"/><path d="M29.67 42.285c-11.557 0-20.925 7.946-20.925 19.835v7.905H29.67v-27.74z" fill="#1F2225"/><path d="M50.594 62.12c0-11.89-9.368-19.836-20.925-19.836v27.74h20.925V62.12z" fill="#42474C"/><path d="M20.3 56.154h18.74v7.04H20.3v-7.04z" fill="#DE6A5A"/><path d="M20.3 56.154h9.368v7.04H20.3v-7.04z" fill="#CD5747"/><path d="M6.5 72.334c0-1.276 1.005-2.31 2.245-2.31h41.51c1.24 0 2.245 1.034 2.245 2.31v.737h-46v-.737z" fill="#DE6A5A"/><path d="M6.5 72.14h46v1.15a.7.7 0 01-.69.71H7.19a.7.7 0 01-.69-.71v-1.15z" fill="#CD5747"/></g></svg>