<svg width="100" height="116" viewBox="0 0 100 116" fill="none" xmlns="http://www.w3.org/2000/svg"><mask id="a" style="mask-type:alpha" maskUnits="userSpaceOnUse" x="0" y="0" width="100" height="116"><path d="M100 27.365c0 7.426-1.622 52.655-4.534 58.993-7.892 17.223-25.284 29.183-45.466 29.183-20.182 0-37.574-11.96-45.466-29.183C1.622 80.02 0 34.79 0 27.365 0-.25 22.385 0 50 0s50-.25 50 27.365z" fill="#F0F1F2"/></mask><g mask="url(#a)"><path d="M99.926 65.542a49.74 49.74 0 01-4.534 20.817c-7.892 17.223-25.284 29.183-45.466 29.183-20.183 0-37.575-11.96-45.466-29.183A49.74 49.74 0 01-.074 65.542c0-27.615 22.385-50 50-50s50 22.385 50 50z" fill="#F0F1F2"/><path d="M61.064 120.946h-2.566l2.566-27.703 7.699-4.104-7.7 31.807zm40.034 0h2.566l-2.566-27.703-7.7-4.104 7.7 31.807z" fill="#BF8563"/><path d="M107.77 65.54H54.392v32.833h53.378V65.54z" fill="#D9942D"/><path d="M104.691 68.619h-47.22v26.676h47.22V68.62z" fill="#E9AF58"/><path d="M106.743 80.418H55.418v3.078h51.325v-3.078zM86.213 75.8H75.948c0-1.128.924-2.051 2.053-2.051h6.16c1.129 0 2.052.923 2.052 2.052zm0 14.365H75.948c0-1.129.924-2.052 2.053-2.052h6.16c1.129 0 2.052.924 2.052 2.052z" fill="#D9942D"/><path d="M84.172 26.332c0 1.94-.422 5.94-2.764 9.666a16.187 16.187 0 01-2.61 3.145 5.06 5.06 0 01.269 1.552c0 2.368-.73 5.823-.883 6.6h-7.6c-.115-.466-.422-1.98-.653-3.805-.038-.155-.038-.31-.038-.504a22.3 22.3 0 01-.115-2.29c0-1.088.346-2.058.96-2.835-5.566-6.094-6.372-15.877-6.449-19.526v-.66c0-3.067 1.996-5.513 4.453-5.513h.268c2.303.155 4.069 2.29 4.606 5.668.615 3.998 1.229 12.034.806 18.13.807 0 1.574.193 2.227.581 0 0-.307-3.882-.039-7.414.077-1.204.27-2.368.538-3.339.384-1.397 1.113-2.678 2.303-3.183-1.574-3.727-2.034-6.134-2.034-7.88v-.04c-.039-.582.153-1.048.422-1.358a1.71 1.71 0 011.305-.583c.921 0 1.42.738 1.65 1.592.115.388.115 1.126.115 1.98v.039c0 1.708-.192 3.882-.307 5.24-.038.311-.076.583-.076.816h.115c.384 0 .767.039 1.113.155-.346-1.708-.384-3.727-.307-5.047.038-.388.038-.698.077-.931.076-.583.383-1.126.882-1.398.23-.116.461-.194.768-.194.921 0 1.65.582 1.65 1.747 0 1.63-.46 3.65-1.458 5.629-.115.272-.269.543-.422.815.73.544 1.228 1.592 1.228 3.145z" fill="#00735C"/><path d="M74.324 42.947v4.309h-3.74c-.115-.466-.422-1.98-.653-3.804-.038-.156-.038-.311-.038-.505a22.3 22.3 0 01-.115-2.29c0-1.088.345-2.058.96-2.834 1.93.325 3.586 2.433 3.586 5.124zm3.936-4.853c-.422-.62-.959-1.164-1.611-1.514 0 0-.308-3.882-.039-7.414.077-1.204.269-2.369.538-3.339.383-1.398 1.113-2.679 2.303-3.183.23.466.46 1.048.614 1.669.153.621.269 1.32.345 2.096.307 3.417-.307 7.88-2.15 11.685zm-5.561-1.784a4.55 4.55 0 00-2 1.513c-5.527-6.056-6.333-15.8-6.41-19.488 4.926 0 8.41 8.576 8.41 17.239v.736z" fill="#108060"/><path d="M74.324 65.54c6.158 0 11.15-5.03 11.15-11.237v-6.25a.77.77 0 00-.768-.774H63.943a.77.77 0 00-.767.774v6.25c0 6.206 4.991 11.237 11.148 11.237z" fill="#E8E9EB"/><path d="M74.325 65.54c6.157 0 11.148-5.03 11.148-11.237v-6.25a.77.77 0 00-.767-.774H74.324v9.19c0 3.75-3.015 6.79-6.735 6.79a11.043 11.043 0 006.736 2.281z" fill="#D2D5D9"/><path d="M30.563 73.614H20.105c-8.68 0-16.232-5.926-18.285-14.356l-1.972-8.074c-.986-4.044 2.075-7.94 6.24-7.94h38.499c4.165 0 7.226 3.895 6.24 7.94l-1.97 8.081a18.83 18.83 0 01-18.294 14.349z" fill="#F9FAFB"/><path d="M20.718 67.578h9.233c7.661 0 14.328-1.743 16.147-9.982l1.74-7.906c.538-2.441-.286-4.828-1.86-6.297 3.426.75 5.722 4.213 4.85 7.79l-1.972 8.082c-2.06 8.423-9.613 14.349-18.293 14.349H20.105c-8.68 0-16.232-5.926-18.285-14.356l-1.972-8.074c-.872-3.578 1.423-7.04 4.849-7.791-1.574 1.47-2.397 3.856-1.86 6.297l1.74 7.899c1.813 8.246 8.48 9.989 16.141 9.989z" fill="#D2D5D9"/><path d="M46.262 72.352c2.424-.245 3.395 2.459 1.193 3.325-5.722 2.245-13.52 4.438-22.117 4.438-8.598 0-16.388-2.193-22.118-4.438-2.2-.866-1.237-3.57 1.194-3.325 5.596.563 12.912 1.088 20.924 1.088 8.012 0 15.328-.518 20.924-1.088z" fill="#BF8563"/><path d="M41.772 111.107h-1.699L32.55 78.818l3.795-1.081 5.427 33.37zm-32.822.001h1.646l7.53-32.29-3.795-1.08-5.38 33.37z" fill="#975D48"/><path d="M17.227 82.674H13.61l.723-4.937 3.794 1.081-.899 3.856zm16.223 0h3.618l-.723-4.937-3.795 1.081.9 3.856z" fill="#6D493C"/><path d="M4.024 114.189H6.37L16.058 77.9l-4.884-1.222-7.15 37.511zm42.623 0h-2.35L34.61 77.9l4.885-1.222 7.152 37.511z" fill="#BF8563"/><path d="M39.576 92.078v-6.874c-2.839 1.267-8.153 2.118-14.246 2.118-6.092 0-11.407-.852-14.245-2.118v6.874c2.838-1.267 8.153-2.119 14.245-2.119 6.1.008 11.415.86 14.246 2.119z" fill="#BF8563"/><path d="M47.885 73.663C42.052 75.907 34.1 78.1 25.338 78.1c-8.761 0-16.714-2.193-22.548-4.437a2.31 2.31 0 01-.585-.326c-.452.8-.215 1.86 1.015 2.34 5.722 2.245 13.52 4.438 22.118 4.438 8.598 0 16.388-2.193 22.11-4.437 1.23-.482 1.467-1.541 1.015-2.341a2.364 2.364 0 01-.578.326z" fill="#975D48"/><path d="M10.169 82.674h4.615l1.274-4.774-4.693-1.174h-.2l-.996 5.948zm30.331 0h-4.615L34.611 77.9l4.693-1.174h.2l.996 5.948zm-28.089 8.9c2.964-1.716 7.943-2.702 12.915-2.702 4.975.006 9.958 1.243 12.987 2.745-3.504-.589-8.112-1.648-12.987-1.653-4.872 0-9.408 1.02-12.915 1.61z" fill="#975D48"/></g></svg>